<svg width="550" height="188" viewBox="0 0 550 188" fill="none" xmlns="http://www.w3.org/2000/svg">
<path d="M206.666 21.6697H195.584V14.833H227.278L224.823 21.6697H214.56V50.5678H206.649V21.6697H206.666Z" fill="url(#paint0_linear_115_519)"/>
<path d="M234.269 59.9953H226.818V24.772H234.269V27.3293H234.371C235.496 25.9484 237.679 24.1582 241.617 24.1582C248.351 24.1582 253.398 29.7162 253.398 37.5758C253.398 45.4866 248.351 51.1469 241.617 51.1469C237.679 51.1469 235.496 49.3567 234.371 47.9757H234.269V59.9953ZM239.844 44.4295C243.271 44.4295 245.658 41.5141 245.658 37.5417C245.658 33.7739 243.254 30.8073 239.844 30.8073C236.434 30.8073 233.979 33.7739 233.979 37.5417C233.962 41.5141 236.417 44.4295 239.844 44.4295Z" fill="url(#paint1_linear_115_519)"/>
<path d="M256.639 42.4859C256.639 38.3942 260.066 34.0637 268.027 34.0637C269.153 34.0637 270.994 34.1149 272.358 34.3194V33.9614C272.358 31.5575 270.414 30.688 268.215 30.688C266.271 30.688 264.14 31.3018 262.197 32.5804L257.798 28.1477C260.765 25.3857 265.044 24.1582 268.522 24.1582C275.256 24.1582 279.808 27.9942 279.808 34.166V50.5502H272.46V47.9417H272.358C271.028 50.1921 268.624 51.1639 265.419 51.1639C260.355 51.1639 256.639 47.4472 256.639 42.4859ZM272.358 40.7128V39.8433C271.335 39.6388 270.107 39.4853 269.084 39.4853C265.658 39.4853 264.243 40.7128 264.174 42.4519C264.123 44.1909 265.453 45.4184 267.755 45.3672C269.903 45.299 272.358 43.9692 272.358 40.7128Z" fill="url(#paint2_linear_115_519)"/>
<path d="M286.234 24.7725H293.685V34.2688H302.107V24.7725H309.558V50.5506H302.107V40.7986H293.685V50.5506H286.234V24.7725Z" fill="url(#paint3_linear_115_519)"/>
<path d="M314.676 37.5944C314.676 29.7348 319.739 24.1768 327.428 24.1768C330.651 24.1768 334.265 24.8417 337.232 27.7571L332.492 32.4456C331.316 31.218 329.679 30.7577 327.889 30.7577C324.53 30.7577 322.484 33.6219 322.484 37.5944C322.484 41.5668 324.53 44.5333 327.889 44.5333C329.679 44.5333 331.316 44.073 332.492 42.8966L337.232 47.5851C334.265 50.5005 330.651 51.1654 327.428 51.1654C319.722 51.1654 314.676 45.6074 314.676 37.5944Z" fill="url(#paint4_linear_115_519)"/>
<path d="M341.371 24.7725H363.825V50.5506H356.374V31.2681H348.822V50.5677H341.371V24.7725V24.7725Z" fill="url(#paint5_linear_115_519)"/>
<path d="M368.84 37.5944C368.84 29.7348 374.261 24.1768 382.07 24.1768C389.776 24.1768 395.232 29.7348 395.232 37.5944C395.232 45.6074 389.776 51.1654 382.07 51.1654C374.244 51.1654 368.84 45.6074 368.84 37.5944ZM387.457 37.5944C387.457 33.6049 385.412 30.8088 382.053 30.8088C378.677 30.8088 376.597 33.6219 376.597 37.5944C376.597 41.4816 378.694 44.5333 382.053 44.5333C385.429 44.5333 387.457 41.4645 387.457 37.5944Z" fill="url(#paint6_linear_115_519)"/>
<path d="M407.777 59.9953H400.326V24.772H407.777V27.3293H407.879C409.004 25.9484 411.186 24.1582 415.125 24.1582C421.859 24.1582 426.906 29.7162 426.906 37.5758C426.906 45.4866 421.859 51.1469 415.125 51.1469C411.186 51.1469 409.004 49.3567 407.879 47.9757H407.777V59.9953ZM413.352 44.4295C416.778 44.4295 419.165 41.5141 419.165 37.5417C419.165 33.7739 416.761 30.8073 413.352 30.8073C409.925 30.8073 407.487 33.7739 407.487 37.5417C407.47 41.5141 409.925 44.4295 413.352 44.4295Z" fill="url(#paint7_linear_115_519)"/>
<path d="M437.035 31.2677H429.482V24.7891H452.652L450.248 31.2677H444.486V50.5672H437.035V31.2677V31.2677Z" fill="url(#paint8_linear_115_519)"/>
<path d="M455.926 24.7725H463.376V34.2688H471.798V24.7725H479.249V50.5506H471.798V40.7986H463.376V50.5506H455.926V24.7725Z" fill="url(#paint9_linear_115_519)"/>
<path d="M493.486 24.7725V32.1206H498.447C504.107 32.1206 508.864 36.1442 508.864 41.3612C508.864 46.4077 504.107 50.5506 498.447 50.5506H486.035V24.7725H493.486ZM497.731 44.3789C499.674 44.3789 500.902 42.691 500.902 41.3612C500.902 40.0314 499.674 38.2924 497.731 38.2924H493.486V44.3618H497.731V44.3789ZM511.609 24.7725H518.957V50.5506H511.609V24.7725Z" fill="url(#paint10_linear_115_519)"/>
<path d="M524.07 37.6455C524.07 29.7859 529.338 24.1768 536.789 24.1768C543.83 24.1768 549.235 28.4561 549.235 38.3104V40.1006H532.135C532.697 43.4251 535.596 44.4822 537.999 44.4822C540.352 44.4822 542.432 43.357 543.353 42.0271L548.161 46.8179C545.041 49.8356 541.477 51.1484 537.181 51.1484C530.447 51.1654 524.07 46.3746 524.07 37.6455ZM541.426 34.7301C541.119 31.8659 539.585 30.0928 536.738 30.0928C534.129 30.0928 532.493 32.0875 532.049 34.7301H541.426Z" fill="url(#paint11_linear_115_519)"/>
<path d="M197.307 74.8291H204.757V89.3719H204.859L214.714 74.8291H221.141V100.607H213.691V86.0644H213.588L203.785 100.607H197.307V74.8291Z" fill="url(#paint12_linear_115_519)"/>
<path d="M227.928 74.8291H235.378V84.3254H243.8V74.8291H251.251V100.607H243.8V90.8552H235.378V100.607H227.928V74.8291Z" fill="url(#paint13_linear_115_519)"/>
<path d="M258.053 74.8291H265.503V84.3254H273.925V74.8291H281.376V100.607H273.925V90.8552H265.503V100.607H258.053V74.8291Z" fill="url(#paint14_linear_115_519)"/>
<path d="M286.441 87.6325C286.441 79.7728 291.846 74.2148 299.654 74.2148C307.361 74.2148 312.816 79.7728 312.816 87.6325C312.816 95.6455 307.361 101.204 299.654 101.204C291.846 101.221 286.441 95.6455 286.441 87.6325ZM305.059 87.6325C305.059 83.643 303.013 80.8469 299.654 80.8469C296.279 80.8469 294.199 83.66 294.199 87.6325C294.199 91.5196 296.296 94.5714 299.654 94.5714C303.03 94.5885 305.059 91.5196 305.059 87.6325Z" fill="url(#paint15_linear_115_519)"/>
<path d="M317.928 100.607V74.8291H331.26C336.307 74.8291 340.705 76.7215 340.705 81.8192C340.705 84.172 338.864 86.2179 336.886 86.7634V86.8657C339.887 87.6841 341.779 89.8323 341.779 92.9864C341.779 96.7542 338.966 100.59 332.385 100.59H317.928V100.607ZM329.623 85.5018C331.516 85.5018 332.999 84.7346 332.999 82.791C332.999 80.8474 331.516 80.2337 329.623 80.2337H325.378V85.4848H329.623V85.5018ZM330.987 95.2027C333.084 95.2027 333.8 94.1286 333.8 92.9523C333.8 91.7247 333.084 90.4972 330.987 90.4972H325.378V95.1857H330.987V95.2027Z" fill="url(#paint16_linear_115_519)"/>
<path d="M344.885 92.5426C344.885 88.4508 348.312 84.1203 356.274 84.1203C357.399 84.1203 359.24 84.1715 360.604 84.3761V84.0181C360.604 81.6141 358.66 80.7446 356.461 80.7446C354.517 80.7446 352.386 81.3584 350.443 82.6371L346.044 78.2043C349.011 75.4424 353.29 74.2148 356.768 74.2148C363.502 74.2148 368.054 78.0509 368.054 84.2226V100.607H360.706V97.9983H360.604C359.274 100.249 356.87 101.221 353.665 101.221C348.618 101.221 344.885 97.4868 344.885 92.5426ZM360.604 90.7524V89.8829C359.581 89.6783 358.354 89.5249 357.331 89.5249C353.904 89.5249 352.489 90.7524 352.42 92.4914C352.369 94.2304 353.699 95.458 356.001 95.4068C358.149 95.3557 360.604 94.0259 360.604 90.7524Z" fill="url(#paint17_linear_115_519)"/>
<path d="M395.263 100.607H374.48V74.8291H381.931V94.1286H389.842V74.8291H397.292V94.1286H402.236V107.649H395.246V100.607H395.263Z" fill="url(#paint18_linear_115_519)"/>
<path d="M406.654 74.8291H414.105V89.3719H414.207L424.061 74.8291H430.489V100.607H423.038V86.0644H422.936L413.133 100.607H406.654V74.8291V74.8291Z" fill="url(#paint19_linear_115_519)"/>
<path d="M437.271 74.8291H444.722V89.3719H444.824L454.679 74.8291H461.106V100.607H453.656V86.0644H453.553L443.75 100.607H437.271V74.8291V74.8291Z" fill="url(#paint20_linear_115_519)"/>
<path d="M195.398 151.685L207.128 115.95H213.198L221.466 140.143H221.569L229.735 115.95H235.805L247.5 151.685H238.874L232.6 130.868H232.497L225.047 151.685H217.852L210.402 130.868H210.299L204.025 151.685H195.398Z" fill="url(#paint21_linear_115_519)"/>
<path d="M249.359 138.712C249.359 130.852 254.764 125.294 262.572 125.294C270.279 125.294 275.734 130.852 275.734 138.712C275.734 146.725 270.279 152.283 262.572 152.283C254.764 152.3 249.359 146.725 249.359 138.712ZM267.994 138.712C267.994 134.722 265.948 131.926 262.589 131.926C259.214 131.926 257.134 134.739 257.134 138.712C257.134 142.599 259.231 145.651 262.589 145.651C265.948 145.651 267.994 142.599 267.994 138.712Z" fill="url(#paint22_linear_115_519)"/>
<path d="M279.178 138.712C279.178 130.852 284.241 125.294 291.93 125.294C295.153 125.294 298.767 125.959 301.734 128.874L296.994 133.563C295.818 132.335 294.181 131.875 292.391 131.875C289.032 131.875 286.986 134.739 286.986 138.712C286.986 142.684 289.032 145.651 292.391 145.651C294.181 145.651 295.818 145.19 296.994 144.014L301.734 148.702C298.767 151.618 295.153 152.283 291.93 152.283C284.224 152.3 279.178 146.725 279.178 138.712Z" fill="url(#paint23_linear_115_519)"/>
<path d="M305.857 125.908H313.308V135.66H314.433L320.503 125.908H329.027L320.758 138.661L330.05 151.669H320.963L314.126 141.866H313.308V151.669H305.857V125.908Z" fill="url(#paint24_linear_115_519)"/>
<path d="M333.223 151.686V125.908H346.555C351.602 125.908 356 127.801 356 132.898C356 135.251 354.159 137.297 352.181 137.843V137.945C355.182 138.763 357.074 140.911 357.074 144.065C357.074 147.833 354.261 151.669 347.68 151.669H333.223V151.686ZM344.918 136.581C346.811 136.581 348.294 135.814 348.294 133.87C348.294 131.927 346.811 131.313 344.918 131.313H340.673V136.564H344.918V136.581ZM346.299 146.265C348.396 146.265 349.112 145.191 349.112 144.014C349.112 142.787 348.396 141.559 346.299 141.559H340.69V146.248H346.299V146.265Z" fill="url(#paint25_linear_115_519)"/>
<path d="M369.57 125.908V133.256H374.531C380.191 133.256 384.948 137.28 384.948 142.497C384.948 147.543 380.191 151.686 374.531 151.686H362.119V125.908H369.57V125.908ZM373.798 145.498C375.741 145.498 376.969 143.81 376.969 142.48C376.969 141.15 375.741 139.411 373.798 139.411H369.553V145.481H373.798V145.498ZM387.693 125.908H395.041V151.686H387.693V125.908Z" fill="url(#paint26_linear_115_519)"/>
<path d="M58.6481 96.8042V71.8955H45.2305V96.8042V110.222H58.631H83.5568V96.8042H58.6481Z" fill="url(#paint27_linear_115_519)"/>
<path d="M96.9575 45.0781H72.0488V58.4957H96.9575V83.4044H110.358L110.375 58.4957V45.0781H96.9575Z" fill="url(#paint28_linear_115_519)"/>
<path d="M155.743 77.8801C155.743 34.8653 120.878 0 77.8801 0C34.8653 0 0 34.8653 0 77.8801C0 99.3449 8.72912 118.849 22.7434 132.863C23.9369 134.057 25.5054 134.756 27.2785 134.756C30.7736 134.756 33.6037 131.909 33.6037 128.431C33.6037 126.657 32.8535 125.038 31.6772 123.844C19.9645 112.149 12.6675 95.8157 12.6675 77.8631C12.6675 41.9066 41.9236 12.6504 77.8972 12.6504C113.854 12.6504 143.11 41.9236 143.11 77.8631C143.11 95.8498 135.796 112.149 123.981 123.964L68.8953 179.032L77.8631 188L132.983 132.897C147.031 118.815 155.743 99.3619 155.743 77.8801Z" fill="url(#paint29_linear_115_519)"/>
<defs>
<linearGradient id="paint0_linear_115_519" x1="211.136" y1="23.4816" x2="209.259" y2="82.8274" gradientUnits="userSpaceOnUse">
<stop stop-color="#00C8C0"/>
<stop offset="1" stop-opacity="0"/>
</linearGradient>
<linearGradient id="paint1_linear_115_519" x1="239.86" y1="32.8316" x2="237.611" y2="92.3217" gradientUnits="userSpaceOnUse">
<stop stop-color="#00C8C0"/>
<stop offset="1" stop-opacity="0"/>
</linearGradient>
<linearGradient id="paint2_linear_115_519" x1="268.008" y1="30.6942" x2="266.542" y2="75.5402" gradientUnits="userSpaceOnUse">
<stop stop-color="#00C8C0"/>
<stop offset="1" stop-opacity="0"/>
</linearGradient>
<linearGradient id="paint3_linear_115_519" x1="297.679" y1="31.0113" x2="296.352" y2="73.8235" gradientUnits="userSpaceOnUse">
<stop stop-color="#00C8C0"/>
<stop offset="1" stop-opacity="0"/>
</linearGradient>
<linearGradient id="paint4_linear_115_519" x1="325.744" y1="30.7086" x2="324.24" y2="75.5237" gradientUnits="userSpaceOnUse">
<stop stop-color="#00C8C0"/>
<stop offset="1" stop-opacity="0"/>
</linearGradient>
<linearGradient id="paint5_linear_115_519" x1="352.389" y1="31.0155" x2="351.009" y2="73.8526" gradientUnits="userSpaceOnUse">
<stop stop-color="#00C8C0"/>
<stop offset="1" stop-opacity="0"/>
</linearGradient>
<linearGradient id="paint6_linear_115_519" x1="381.79" y1="30.7086" x2="380.504" y2="75.5373" gradientUnits="userSpaceOnUse">
<stop stop-color="#00C8C0"/>
<stop offset="1" stop-opacity="0"/>
</linearGradient>
<linearGradient id="paint7_linear_115_519" x1="413.368" y1="32.8316" x2="411.119" y2="92.3217" gradientUnits="userSpaceOnUse">
<stop stop-color="#00C8C0"/>
<stop offset="1" stop-opacity="0"/>
</linearGradient>
<linearGradient id="paint8_linear_115_519" x1="440.851" y1="31.0279" x2="439.516" y2="73.8396" gradientUnits="userSpaceOnUse">
<stop stop-color="#00C8C0"/>
<stop offset="1" stop-opacity="0"/>
</linearGradient>
<linearGradient id="paint9_linear_115_519" x1="467.37" y1="31.0113" x2="466.043" y2="73.8235" gradientUnits="userSpaceOnUse">
<stop stop-color="#00C8C0"/>
<stop offset="1" stop-opacity="0"/>
</linearGradient>
<linearGradient id="paint10_linear_115_519" x1="502.189" y1="31.0113" x2="501.249" y2="73.844" gradientUnits="userSpaceOnUse">
<stop stop-color="#00C8C0"/>
<stop offset="1" stop-opacity="0"/>
</linearGradient>
<linearGradient id="paint11_linear_115_519" x1="536.418" y1="30.7045" x2="535.072" y2="75.5013" gradientUnits="userSpaceOnUse">
<stop stop-color="#00C8C0"/>
<stop offset="1" stop-opacity="0"/>
</linearGradient>
<linearGradient id="paint12_linear_115_519" x1="209.002" y1="81.068" x2="207.703" y2="123.882" gradientUnits="userSpaceOnUse">
<stop stop-color="#00C8C0"/>
<stop offset="1" stop-opacity="0"/>
</linearGradient>
<linearGradient id="paint13_linear_115_519" x1="239.372" y1="81.068" x2="238.045" y2="123.88" gradientUnits="userSpaceOnUse">
<stop stop-color="#00C8C0"/>
<stop offset="1" stop-opacity="0"/>
</linearGradient>
<linearGradient id="paint14_linear_115_519" x1="269.497" y1="81.068" x2="268.17" y2="123.88" gradientUnits="userSpaceOnUse">
<stop stop-color="#00C8C0"/>
<stop offset="1" stop-opacity="0"/>
</linearGradient>
<linearGradient id="paint15_linear_115_519" x1="299.383" y1="80.7467" x2="298.097" y2="125.575" gradientUnits="userSpaceOnUse">
<stop stop-color="#00C8C0"/>
<stop offset="1" stop-opacity="0"/>
</linearGradient>
<linearGradient id="paint16_linear_115_519" x1="329.631" y1="81.068" x2="328.334" y2="123.882" gradientUnits="userSpaceOnUse">
<stop stop-color="#00C8C0"/>
<stop offset="1" stop-opacity="0"/>
</linearGradient>
<linearGradient id="paint17_linear_115_519" x1="356.254" y1="80.7508" x2="354.788" y2="125.597" gradientUnits="userSpaceOnUse">
<stop stop-color="#00C8C0"/>
<stop offset="1" stop-opacity="0"/>
</linearGradient>
<linearGradient id="paint18_linear_115_519" x1="388.1" y1="82.7721" x2="386.293" y2="137.271" gradientUnits="userSpaceOnUse">
<stop stop-color="#00C8C0"/>
<stop offset="1" stop-opacity="0"/>
</linearGradient>
<linearGradient id="paint19_linear_115_519" x1="418.35" y1="81.068" x2="417.051" y2="123.882" gradientUnits="userSpaceOnUse">
<stop stop-color="#00C8C0"/>
<stop offset="1" stop-opacity="0"/>
</linearGradient>
<linearGradient id="paint20_linear_115_519" x1="448.967" y1="81.068" x2="447.668" y2="123.882" gradientUnits="userSpaceOnUse">
<stop stop-color="#00C8C0"/>
<stop offset="1" stop-opacity="0"/>
</linearGradient>
<linearGradient id="paint21_linear_115_519" x1="220.964" y1="124.599" x2="219.822" y2="183.982" gradientUnits="userSpaceOnUse">
<stop stop-color="#00C8C0"/>
<stop offset="1" stop-opacity="0"/>
</linearGradient>
<linearGradient id="paint22_linear_115_519" x1="262.301" y1="131.826" x2="261.015" y2="176.655" gradientUnits="userSpaceOnUse">
<stop stop-color="#00C8C0"/>
<stop offset="1" stop-opacity="0"/>
</linearGradient>
<linearGradient id="paint23_linear_115_519" x1="290.246" y1="131.826" x2="288.742" y2="176.641" gradientUnits="userSpaceOnUse">
<stop stop-color="#00C8C0"/>
<stop offset="1" stop-opacity="0"/>
</linearGradient>
<linearGradient id="paint24_linear_115_519" x1="317.728" y1="132.143" x2="316.451" y2="174.93" gradientUnits="userSpaceOnUse">
<stop stop-color="#00C8C0"/>
<stop offset="1" stop-opacity="0"/>
</linearGradient>
<linearGradient id="paint25_linear_115_519" x1="344.926" y1="132.147" x2="343.629" y2="174.961" gradientUnits="userSpaceOnUse">
<stop stop-color="#00C8C0"/>
<stop offset="1" stop-opacity="0"/>
</linearGradient>
<linearGradient id="paint26_linear_115_519" x1="378.273" y1="132.147" x2="377.333" y2="174.98" gradientUnits="userSpaceOnUse">
<stop stop-color="#00C8C0"/>
<stop offset="1" stop-opacity="0"/>
</linearGradient>
<linearGradient id="paint27_linear_115_519" x1="64.0366" y1="81.1713" x2="62.2511" y2="144.834" gradientUnits="userSpaceOnUse">
<stop stop-color="#00C8C0"/>
<stop offset="1" stop-opacity="0"/>
</linearGradient>
<linearGradient id="paint28_linear_115_519" x1="90.8549" y1="54.3539" x2="89.0695" y2="118.017" gradientUnits="userSpaceOnUse">
<stop stop-color="#00C8C0"/>
<stop offset="1" stop-opacity="0"/>
</linearGradient>
<linearGradient id="paint29_linear_115_519" x1="76.4207" y1="45.5" x2="65.8524" y2="357.671" gradientUnits="userSpaceOnUse">
<stop stop-color="#00C8C0"/>
<stop offset="1" stop-opacity="0"/>
</linearGradient>
</defs>
</svg>
