<svg width="946" height="110" viewBox="0 0 946 110" fill="none" xmlns="http://www.w3.org/2000/svg">
<path d="M20.865 108H0.46504V2.24999H32.415L58.665 77.85H61.215L88.365 2.24999H119.565V108H99.165V31.65H96.465L69.165 108H50.115L23.565 31.65H20.865V108ZM162.987 108H141.987V2.24999H162.987V108ZM220.578 109.5C210.578 109.5 201.678 106.75 193.878 101.25C186.178 95.75 181.078 88.4 178.578 79.2L198.978 75.75C202.078 80.75 205.178 84.45 208.278 86.85C211.378 89.15 215.578 90.3 220.878 90.3C225.278 90.3 228.928 89.35 231.828 87.45C234.728 85.45 236.178 82.7 236.178 79.2C236.178 75.4 234.528 72.5 231.228 70.5C228.028 68.4 223.028 66.3 216.228 64.2C209.528 62 203.978 59.85 199.578 57.75C195.278 55.65 191.528 52.45 188.328 48.15C185.228 43.85 183.678 38.25 183.678 31.35C183.678 25.05 185.228 19.6 188.328 15C191.428 10.3 195.628 6.74999 200.928 4.34999C206.328 1.94999 212.278 0.749995 218.778 0.749995C228.278 0.749995 236.428 3.29999 243.228 8.39999C250.028 13.4 254.828 20.25 257.628 28.95L237.678 32.25C233.778 24.05 227.778 19.95 219.678 19.95C215.678 19.95 212.228 20.85 209.328 22.65C206.528 24.45 205.128 27.05 205.128 30.45C205.128 33.05 205.978 35.25 207.678 37.05C209.378 38.75 211.528 40.2 214.128 41.4C216.728 42.5 220.428 43.85 225.228 45.45C231.928 47.65 237.428 49.85 241.728 52.05C246.028 54.25 249.728 57.5 252.828 61.8C256.028 66.1 257.628 71.7 257.628 78.6C257.628 84.9 255.928 90.4 252.528 95.1C249.228 99.8 244.728 103.4 239.028 105.9C233.428 108.3 227.278 109.5 220.578 109.5ZM296.434 108H275.434V2.24999H296.434V108ZM354.026 109.5C344.026 109.5 335.126 106.75 327.326 101.25C319.626 95.75 314.526 88.4 312.026 79.2L332.426 75.75C335.526 80.75 338.626 84.45 341.726 86.85C344.826 89.15 349.026 90.3 354.326 90.3C358.726 90.3 362.376 89.35 365.276 87.45C368.176 85.45 369.626 82.7 369.626 79.2C369.626 75.4 367.976 72.5 364.676 70.5C361.476 68.4 356.476 66.3 349.676 64.2C342.976 62 337.426 59.85 333.026 57.75C328.726 55.65 324.976 52.45 321.776 48.15C318.676 43.85 317.126 38.25 317.126 31.35C317.126 25.05 318.676 19.6 321.776 15C324.876 10.3 329.076 6.74999 334.376 4.34999C339.776 1.94999 345.726 0.749995 352.226 0.749995C361.726 0.749995 369.876 3.29999 376.676 8.39999C383.476 13.4 388.276 20.25 391.076 28.95L371.126 32.25C367.226 24.05 361.226 19.95 353.126 19.95C349.126 19.95 345.676 20.85 342.776 22.65C339.976 24.45 338.576 27.05 338.576 30.45C338.576 33.05 339.426 35.25 341.126 37.05C342.826 38.75 344.976 40.2 347.576 41.4C350.176 42.5 353.876 43.85 358.676 45.45C365.376 47.65 370.876 49.85 375.176 52.05C379.476 54.25 383.176 57.5 386.276 61.8C389.476 66.1 391.076 71.7 391.076 78.6C391.076 84.9 389.376 90.4 385.976 95.1C382.676 99.8 378.176 103.4 372.476 105.9C366.876 108.3 360.726 109.5 354.026 109.5ZM407.381 108V2.24999H427.631V39.3C430.231 35.8 433.531 33.05 437.531 31.05C441.531 28.95 445.681 27.9 449.981 27.9C455.581 27.9 460.681 29.35 465.281 32.25C469.881 35.05 473.481 39 476.081 44.1C478.781 49.1 480.131 54.7 480.131 60.9V108H459.881V63.6C459.881 58.4 458.381 54.15 455.381 50.85C452.381 47.55 448.531 45.9 443.831 45.9C438.931 45.9 434.981 47.55 431.981 50.85C429.081 54.05 427.631 58.3 427.631 63.6V108H407.381ZM526.987 109.5C521.487 109.5 516.437 108.1 511.837 105.3C507.337 102.4 503.787 98.45 501.187 93.45C498.587 88.35 497.287 82.7 497.287 76.5V29.4H517.537V73.8C517.537 79 518.987 83.25 521.887 86.55C524.887 89.85 528.687 91.5 533.287 91.5C537.987 91.5 541.787 89.9 544.687 86.7C547.587 83.4 549.037 79.1 549.037 73.8V29.4H569.287V108H553.537L550.087 96.3C547.587 100.3 544.237 103.5 540.037 105.9C535.937 108.3 531.587 109.5 526.987 109.5ZM587.832 108V29.4H603.582L607.032 40.95C609.632 36.95 612.982 33.8 617.082 31.5C621.282 29.1 625.732 27.9 630.432 27.9C636.032 27.9 641.132 29.35 645.732 32.25C650.332 35.05 653.932 39 656.532 44.1C659.232 49.1 660.582 54.7 660.582 60.9V108H640.332V63.6C640.332 58.4 638.832 54.15 635.832 50.85C632.832 47.55 628.982 45.9 624.282 45.9C619.382 45.9 615.432 47.55 612.432 50.85C609.532 54.05 608.082 58.3 608.082 63.6V108H587.832ZM726.96 90.6L725.16 108H709.56C700.56 108 693.76 105.95 689.16 101.85C684.56 97.65 682.26 91.6 682.26 83.7V46.8H670.11V29.4H682.26L686.91 6.9H702.51V29.4H725.16V46.8H702.51V83.7C702.51 88.3 704.86 90.6 709.56 90.6H726.96ZM816.425 67.5C816.425 69.4 816.325 71.55 816.125 73.95H754.325C755.325 79.35 757.725 83.65 761.525 86.85C765.325 89.95 770.125 91.5 775.925 91.5C779.925 91.5 783.475 90.75 786.575 89.25C789.675 87.75 792.125 85.7 793.925 83.1L812.975 86.25C810.375 93.65 805.525 99.4 798.425 103.5C791.325 107.5 783.425 109.5 774.725 109.5C766.825 109.5 759.725 107.75 753.425 104.25C747.225 100.75 742.375 95.9 738.875 89.7C735.375 83.5 733.625 76.5 733.625 68.7C733.625 60.9 735.375 53.9 738.875 47.7C742.475 41.5 747.425 36.65 753.725 33.15C760.025 29.65 767.125 27.9 775.025 27.9C782.925 27.9 790.025 29.65 796.325 33.15C802.625 36.65 807.525 41.45 811.025 47.55C814.625 53.55 816.425 60.2 816.425 67.5ZM775.025 44.85C770.325 44.85 766.225 46.2 762.725 48.9C759.225 51.5 756.775 55 755.375 59.4H794.375C792.975 55.1 790.525 51.6 787.025 48.9C783.625 46.2 779.625 44.85 775.025 44.85ZM829.092 108V29.4H844.842L847.992 40.35C850.792 35.95 853.992 33.05 857.592 31.65C861.192 30.15 865.542 29.4 870.642 29.4H873.492L875.292 48.75H863.592C858.792 48.75 855.192 49.8 852.792 51.9C850.492 54 849.342 57.4 849.342 62.1V108H829.092ZM911.805 109.5C902.605 109.5 894.955 107.3 888.855 102.9C882.855 98.5 879.055 92.45 877.455 84.75L896.205 81.6C897.405 84.9 899.405 87.55 902.205 89.55C905.105 91.55 908.705 92.55 913.005 92.55C916.405 92.55 919.305 92 921.705 90.9C924.205 89.7 925.455 87.95 925.455 85.65C925.455 83.25 924.105 81.35 921.405 79.95C918.705 78.55 914.955 77.35 910.155 76.35C901.755 74.55 894.955 71.9 889.755 68.4C884.655 64.9 882.105 59.35 882.105 51.75C882.105 43.85 885.055 37.9 890.955 33.9C896.955 29.9 904.305 27.9 913.005 27.9C921.105 27.9 928.055 30 933.855 34.2C939.755 38.4 943.755 44.15 945.855 51.45L927.105 54.6C925.905 51.5 924.055 49.1 921.555 47.4C919.155 45.7 916.305 44.85 913.005 44.85C910.105 44.85 907.605 45.5 905.505 46.8C903.405 48 902.355 49.6 902.355 51.6C902.355 54 903.805 55.9 906.705 57.3C909.605 58.7 913.805 60.05 919.305 61.35C927.005 63.15 933.305 65.75 938.205 69.15C943.205 72.55 945.705 77.8 945.705 84.9C945.705 89.3 944.505 93.4 942.105 97.2C939.805 100.9 936.105 103.9 931.005 106.2C925.905 108.4 919.505 109.5 911.805 109.5Z" fill="url(#paint0_linear_115_24828)"/>
<defs>
<linearGradient id="paint0_linear_115_24828" x1="471" y1="-2" x2="471" y2="146" gradientUnits="userSpaceOnUse">
<stop offset="0.0989583" stop-color="#00CBC3"/>
<stop offset="1" stop-color="#0E0A18" stop-opacity="0"/>
</linearGradient>
</defs>
</svg>
