<svg width="1920" height="1092" viewBox="0 0 1920 1092" fill="none" xmlns="http://www.w3.org/2000/svg">
<g opacity="0.4">
<path opacity="0.2" fill-rule="evenodd" clip-rule="evenodd" d="M0.00887572 0H1920V1053.61C1920 1062.41 1910.39 1042.65 1871.94 893.233C1846.33 793.718 1828.18 813.508 1782 863.852C1741.52 907.992 1679.5 975.62 1572.02 1006.92C1465.05 1038.06 1429.43 947.218 1392.69 853.528C1350.41 745.705 1306.65 634.116 1150.98 700.376C1049.6 743.526 969.178 819.182 905.132 879.433C877.707 905.233 853.285 928.209 831.505 944.598C787.372 977.808 754.088 983.975 728.657 931.804C640.335 780.974 575.101 806.571 499.634 836.184C442.04 858.783 378.485 883.721 294.16 834.361C62.9687 699.033 0.858589 914.213 0.00887572 1003.26V0Z" fill="url(#paint0_linear_116_519)"/>
<path opacity="0.2" fill-rule="evenodd" clip-rule="evenodd" d="M1920 0H0V923.532C165.533 376.022 255.514 475.256 370.226 601.764C466.02 707.408 579.059 832.071 767.744 615.011C1240.36 71.3139 1787.57 -250.632 1519.47 531.792C1430 792.885 1569.23 1010.38 1662.35 792.885C1738.5 615.011 1843.68 553.572 1866.17 690.112C1909.23 951.542 1920 1066.97 1920 1092V0Z" fill="url(#paint1_linear_116_519)"/>
</g>
<defs>
<linearGradient id="paint0_linear_116_519" x1="973.463" y1="184.737" x2="1290.42" y2="855.41" gradientUnits="userSpaceOnUse">
<stop stop-color="#1E1E1E"/>
<stop offset="1" stop-color="#00C8C0"/>
</linearGradient>
<linearGradient id="paint1_linear_116_519" x1="926.035" y1="-316.401" x2="1081.89" y2="1343.14" gradientUnits="userSpaceOnUse">
<stop stop-color="#01543B"/>
<stop offset="1" stop-color="#00C8C0"/>
</linearGradient>
</defs>
</svg>
